<svg xmlns="http://www.w3.org/2000/svg" width="64" height="64" viewBox="0 0 64 64"><path d="M63.35 25.558c-.42-2.056-1.05-4.08-1.866-6.015-.802-1.9-1.795-3.727-2.95-5.436-1.145-1.694-2.46-3.287-3.906-4.733-1.448-1.45-3.04-2.764-4.735-3.907-1.71-1.158-3.54-2.15-5.436-2.953C42.524 1.7 40.5 1.068 38.443.65 36.336.22 34.167 0 32 0c-2.168 0-4.337.22-6.445.65-2.056.418-4.08 1.05-6.013 1.864-1.896.804-3.727 1.795-5.437 2.953C12.41 6.61 10.818 7.924 9.37 9.373c-1.446 1.446-2.76 3.04-3.904 4.733-1.156 1.71-2.15 3.537-2.95 5.436-.82 1.934-1.447 3.96-1.868 6.015-.43 2.103-.65 4.273-.65 6.44 0 2.172.22 4.342.65 6.448.42 2.056 1.05 4.08 1.867 6.013.802 1.896 1.795 3.73 2.95 5.44C6.61 51.59 7.926 53.18 9.37 54.63c1.447 1.446 3.04 2.76 4.734 3.904 1.71 1.155 3.54 2.15 5.437 2.95 1.934.82 3.958 1.445 6.014 1.867 2.11.436 4.277.653 6.446.653 2.167 0 4.335-.217 6.442-.652 2.057-.42 4.08-1.046 6.014-1.865 1.896-.802 3.727-1.795 5.436-2.95 1.694-1.147 3.287-2.46 4.735-3.905 1.446-1.45 2.76-3.04 3.905-4.733 1.155-1.71 2.15-3.542 2.95-5.44.818-1.93 1.447-3.956 1.867-6.012.43-2.106.65-4.275.65-6.448 0-2.166-.217-4.336-.65-6.44zM32 4.67c6.92 0 13.235 2.58 18.05 6.82-.067.105-3.96 6.03-14.276 9.896C31.104 12.802 25.97 5.982 25.56 5.44c2.066-.5 4.22-.77 6.44-.77zm-6.545.794c0 .003-.005.005-.005.005l-.082.017c.028-.008.058-.013.087-.023zM20.34 7.282c.363.488 5.417 7.34 10.148 15.747-13.123 3.486-24.51 3.35-25.233 3.336C7.032 17.9 12.718 10.883 20.34 7.282zm-8.667 42.98c-4.352-4.84-7-11.243-7-18.265 0-.29.012-.576.022-.862.48.01 13.986.316 28.057-3.894.784 1.533 1.532 3.09 2.218 4.646-.362.1-.72.21-1.077.326-14.75 4.767-22.23 18.038-22.23 18.038s.008.008.01.013zM32 59.33c-6.337 0-12.156-2.175-16.792-5.795l-.005.01s-.252-.187-.612-.478c.2.164.414.31.618.468.1-.216 5.39-11.47 21.443-17.062.06-.023.12-.04.182-.058 3.846 9.993 5.434 18.362 5.838 20.75C39.392 58.56 35.785 59.33 32 59.33zm15.272-4.662c-.278-1.65-1.734-9.67-5.32-19.522 8.823-1.41 16.468 1.01 17.032 1.193-1.217 7.615-5.576 14.183-11.712 18.328zm-6.986-23.836c-.192-.468-.387-.938-.59-1.41-.568-1.338-1.18-2.663-1.816-3.965 10.793-4.405 15.174-10.74 15.226-10.817 3.833 4.655 6.152 10.602 6.215 17.087-.395-.086-9.644-2.076-19.034-.895z"/></svg>